# Blender v3.3.12 OBJ File: 'untitled.blend'
# www.blender.org
mtllib tracks.mtl
o Cube.001_Cube.007
v -0.811076 -0.635795 -0.532573
v -0.811076 -0.364205 -0.532573
v -1.188924 -0.635795 -0.532573
v -1.188925 -0.364205 -0.532573
v -0.811076 -0.364205 1.520302
v -1.188925 -0.364205 1.520302
v -1.188924 -0.635795 1.820615
v -0.811076 -0.635795 1.829284
v -1.188924 -0.635796 0.450744
v -1.188925 -0.364205 0.450744
v -0.811076 -0.635796 0.450744
v -0.811076 -0.364205 0.450744
v -1.188925 -0.364204 -1.602131
v -0.811076 -0.364204 -1.602131
v -0.811076 -0.635795 -1.902444
v -1.188924 -0.635795 -1.911113
v 1.188925 -0.635795 -0.532573
v 1.188925 -0.364205 -0.532573
v 0.811077 -0.635795 -0.532573
v 0.811077 -0.364205 -0.532573
v 1.188925 -0.364205 1.520302
v 0.811077 -0.364205 1.520302
v 0.811077 -0.635795 1.820615
v 1.188925 -0.635795 1.829284
v 0.811077 -0.635796 0.450744
v 0.811077 -0.364205 0.450744
v 1.188925 -0.635796 0.450744
v 1.188925 -0.364205 0.450744
v 0.811077 -0.364204 -1.602131
v 1.188925 -0.364204 -1.602131
v 1.188925 -0.635795 -1.902444
v 0.811077 -0.635795 -1.911113
v 0.811077 -0.635795 1.820615
v 0.811077 -0.405715 1.666035
v 1.188925 -0.405356 1.664773
v 1.188925 -0.635795 1.829284
v 1.188925 -0.635795 -1.902444
v 1.188925 -0.408989 -1.759361
v 0.811077 -0.408630 -1.758099
v 0.811077 -0.635795 -1.911113
v -0.811076 -0.635795 -1.902444
v -0.811076 -0.409859 -1.762413
v -1.188924 -0.409500 -1.761151
v -1.188924 -0.635795 -1.911113
v -1.188924 -0.635795 1.820615
v -1.188924 -0.407265 1.671475
v -0.811076 -0.406905 1.670213
v -0.811076 -0.635795 1.829284
vt 0.625000 0.750000
vt 0.375000 1.000000
vt 0.375000 0.750000
vt 0.625000 0.500000
vt 0.585694 0.250000
vt 0.625000 0.250000
vt 0.625000 0.170711
vt 0.585694 0.183177
vt 0.375000 0.196405
vt 0.875000 0.579289
vt 0.625000 0.579289
vt 0.375000 0.554316
vt 0.125000 0.750000
vt 0.125000 0.553595
vt 0.375000 0.554316
vt 0.625000 0.750000
vt 0.375000 1.000000
vt 0.375000 0.750000
vt 0.625000 0.500000
vt 0.583306 0.250000
vt 0.625000 0.250000
vt 0.625000 0.170711
vt 0.583306 0.183935
vt 0.375000 0.196405
vt 0.875000 0.579289
vt 0.625000 0.579289
vt 0.375000 0.554316
vt 0.125000 0.750000
vt 0.125000 0.553595
vt 0.375000 0.554316
vt 0.625000 0.750000
vt 0.375000 1.000000
vt 0.375000 0.750000
vt 0.625000 0.500000
vt 0.587120 0.250000
vt 0.625000 0.250000
vt 0.625000 0.170711
vt 0.587120 0.182725
vt 0.375000 0.196405
vt 0.875000 0.579289
vt 0.625000 0.579289
vt 0.375000 0.554316
vt 0.125000 0.750000
vt 0.125000 0.553595
vt 0.375000 0.554316
vt 0.625000 0.750000
vt 0.375000 1.000000
vt 0.375000 0.750000
vt 0.625000 0.500000
vt 0.584106 0.250000
vt 0.625000 0.250000
vt 0.625000 0.170711
vt 0.584106 0.183681
vt 0.375000 0.196405
vt 0.875000 0.579289
vt 0.625000 0.579289
vt 0.375000 0.554316
vt 0.125000 0.750000
vt 0.125000 0.553595
vt 0.375000 0.554316
vt 0.515276 0.205511
vt 0.125000 0.553595
vt 0.515276 0.205511
vt 0.125000 0.553595
vt 0.515276 0.205511
vt 0.125000 0.553595
vt 0.514945 0.499953
vt 0.515276 0.250000
vt 0.125000 0.553595
vt 0.625000 1.000000
vt 0.585363 0.500000
vt 0.375000 0.000000
vt 0.625000 0.000000
vt 0.375000 0.196405
vt 0.875000 0.750000
vt 0.585363 0.566718
vt 0.625000 1.000000
vt 0.582975 0.500000
vt 0.375000 0.000000
vt 0.625000 0.000000
vt 0.375000 0.196405
vt 0.875000 0.750000
vt 0.582975 0.565961
vt 0.625000 1.000000
vt 0.586789 0.500000
vt 0.375000 0.000000
vt 0.625000 0.000000
vt 0.375000 0.196405
vt 0.875000 0.750000
vt 0.586789 0.567171
vt 0.625000 1.000000
vt 0.583775 0.500000
vt 0.375000 0.000000
vt 0.625000 0.000000
vt 0.375000 0.196405
vt 0.875000 0.750000
vt 0.583775 0.566214
vt 0.514945 0.499794
vt 0.514945 0.499802
vt 0.514945 0.499805
vn -0.0000 0.0000 -1.0000
vn -0.0000 0.9617 0.2739
vn 1.0000 0.0000 0.0000
vn -0.0000 1.0000 0.0000
vn 0.0000 -1.0000 0.0000
vn -1.0000 -0.0000 0.0000
vn -0.0000 0.0000 1.0000
vn 0.0000 0.9617 -0.2739
vn -0.0187 0.5809 0.8137
vn 0.0190 0.5586 -0.8292
vn 0.0191 0.5523 -0.8334
vn -0.0188 0.5706 0.8210
vn 0.0022 0.5577 0.8301
vn -0.0023 0.5336 -0.8458
vn -0.0023 0.5268 -0.8500
vn 0.0023 0.5465 0.8374
usemtl None
s off
f 4/1/1 1/2/1 3/3/1
f 6/4/2 47/5/2 5/6/2
f 5/7/3 47/8/3 8/9/3
f 5/10/4 4/1/4 6/11/4
f 7/12/5 1/13/5 8/14/5
f 45/15/6 6/11/6 3/3/6
f 12/16/7 9/17/7 11/18/7
f 14/19/8 43/20/8 13/21/8
f 13/22/6 43/23/6 16/24/6
f 13/25/4 12/16/4 14/26/4
f 15/27/5 9/28/5 16/29/5
f 41/30/3 14/26/3 11/18/3
f 20/31/1 17/32/1 19/33/1
f 22/34/2 35/35/2 21/36/2
f 21/37/3 35/38/3 24/39/3
f 21/40/4 20/31/4 22/41/4
f 23/42/5 17/43/5 24/44/5
f 33/45/6 22/41/6 19/33/6
f 28/46/7 25/47/7 27/48/7
f 30/49/8 39/50/8 29/51/8
f 29/52/6 39/53/6 32/54/6
f 29/55/4 28/46/4 30/56/4
f 31/57/5 25/58/5 32/59/5
f 37/60/3 30/56/3 27/48/3
f 35/61/9 33/45/9 36/62/9
f 23/42/7 36/62/7 33/45/7
f 39/63/10 37/60/10 40/64/10
f 31/57/7 40/64/7 37/60/7
f 43/65/11 41/30/11 44/66/11
f 15/27/7 44/66/7 41/30/7
f 47/5/12 45/67/12 48/68/12
f 7/12/7 48/69/7 45/15/7
f 4/1/1 2/70/1 1/2/1
f 6/4/2 46/71/2 47/5/2
f 1/72/3 2/73/3 5/7/3
f 47/8/7 48/74/7 8/9/7
f 8/9/3 1/72/3 5/7/3
f 5/10/4 2/75/4 4/1/4
f 7/12/5 3/3/5 1/13/5
f 3/3/7 7/12/7 45/15/7
f 45/15/6 46/76/6 6/11/6
f 6/11/6 4/1/6 3/3/6
f 12/16/7 10/77/7 9/17/7
f 14/19/8 42/78/8 43/20/8
f 9/79/6 10/80/6 13/22/6
f 43/23/7 44/81/7 16/24/7
f 16/24/6 9/79/6 13/22/6
f 13/25/4 10/82/4 12/16/4
f 15/27/5 11/18/5 9/28/5
f 11/18/7 15/27/7 41/30/7
f 41/30/3 42/83/3 14/26/3
f 14/26/3 12/16/3 11/18/3
f 20/31/1 18/84/1 17/32/1
f 22/34/2 34/85/2 35/35/2
f 17/86/3 18/87/3 21/37/3
f 35/38/7 36/88/7 24/39/7
f 24/39/3 17/86/3 21/37/3
f 21/40/4 18/89/4 20/31/4
f 23/42/5 19/33/5 17/43/5
f 19/33/7 23/42/7 33/45/7
f 33/45/6 34/90/6 22/41/6
f 22/41/6 20/31/6 19/33/6
f 28/46/7 26/91/7 25/47/7
f 30/49/8 38/92/8 39/50/8
f 25/93/6 26/94/6 29/52/6
f 39/53/7 40/95/7 32/54/7
f 32/54/6 25/93/6 29/52/6
f 29/55/4 26/96/4 28/46/4
f 31/57/5 27/48/5 25/58/5
f 27/48/7 31/57/7 37/60/7
f 37/60/3 38/97/3 30/56/3
f 30/56/3 28/46/3 27/48/3
f 35/61/13 34/98/13 33/45/13
f 23/42/7 24/44/7 36/62/7
f 39/63/14 38/99/14 37/60/14
f 31/57/7 32/59/7 40/64/7
f 43/65/15 42/100/15 41/30/15
f 15/27/7 16/29/7 44/66/7
f 47/5/16 46/71/16 45/67/16
f 7/12/7 8/14/7 48/69/7
